<svg xmlns="http://www.w3.org/2000/svg" width="25.052" height="25.046" viewBox="0 0 25.052 25.046">
  <path id="Icon_awesome-instagram" data-name="Icon awesome-instagram" d="M12.523,8.339a6.422,6.422,0,1,0,6.422,6.422A6.411,6.411,0,0,0,12.523,8.339Zm0,10.6A4.175,4.175,0,1,1,16.7,14.761a4.182,4.182,0,0,1-4.175,4.175ZM20.706,8.077a1.5,1.5,0,1,1-1.5-1.5A1.494,1.494,0,0,1,20.706,8.077ZM24.959,9.6a7.412,7.412,0,0,0-2.023-5.248,7.461,7.461,0,0,0-5.248-2.023c-2.068-.117-8.266-.117-10.334,0A7.45,7.45,0,0,0,2.106,4.343,7.437,7.437,0,0,0,.083,9.591c-.117,2.068-.117,8.266,0,10.334a7.412,7.412,0,0,0,2.023,5.248A7.47,7.47,0,0,0,7.354,27.2c2.068.117,8.266.117,10.334,0a7.412,7.412,0,0,0,5.248-2.023,7.461,7.461,0,0,0,2.023-5.248c.117-2.068.117-8.26,0-10.328ZM22.287,22.144a4.227,4.227,0,0,1-2.381,2.381c-1.649.654-5.561.5-7.383.5s-5.74.145-7.383-.5A4.227,4.227,0,0,1,2.76,22.144c-.654-1.649-.5-5.561-.5-7.383s-.145-5.74.5-7.383A4.227,4.227,0,0,1,5.141,5c1.649-.654,5.561-.5,7.383-.5s5.74-.145,7.383.5a4.227,4.227,0,0,1,2.381,2.381c.654,1.649.5,5.561.5,7.383S22.941,20.5,22.287,22.144Z" transform="translate(0.005 -2.238)" fill="#EE1D52"/>
</svg>
