<svg xmlns="http://www.w3.org/2000/svg" width="25.047" height="25.046" viewBox="0 0 25.047 25.046">
  <path id="Icon_awesome-linkedin-in" data-name="Icon awesome-linkedin-in" d="M5.606,25.047H.414V8.325H5.606Zm-2.6-19A3.022,3.022,0,1,1,6.015,3.008,3.033,3.033,0,0,1,3.007,6.044Zm22.034,19H19.86v-8.14c0-1.94-.039-4.428-2.7-4.428-2.7,0-3.114,2.108-3.114,4.288v8.28H8.859V8.325h4.98v2.281h.073a5.456,5.456,0,0,1,4.913-2.7c5.255,0,6.221,3.461,6.221,7.956v9.186Z" transform="translate(0 -0.001)" fill="#EE1D52"/>
</svg>
